<svg id="Livello_1" fill="black" data-name="Livello 1" xmlns="http://www.w3.org/2000/svg" viewBox="0 0 1080 1080"><title>logo-k</title><path d="M1044.35,1079.5H781.48a35.12,35.12,0,0,1-24.86-10.3L540,852.58,323.38,1069.2a35.12,35.12,0,0,1-24.86,10.3H35.65a35.15,35.15,0,0,1-24.85-60L959.48,70.8H793.75L298.93,565.63a35.15,35.15,0,0,1-60-24.86V35.65A35.15,35.15,0,0,1,274.07.5H466.64a35.15,35.15,0,0,1,35.15,35.15V263.34L754.1,11A35.81,35.81,0,0,1,779.19.5h265.16a35.15,35.15,0,0,1,24.85,60L120.52,1009.2H284L645.5,647.66a35.14,35.14,0,0,1,49.35-.35l76.74,74.57.36.35,297.25,297.26a35.15,35.15,0,0,1-24.85,60ZM796,1009.2H959.48L722.41,772.12l-51.7-50.25-81,81ZM309.22,70.8V455.91L431.49,333.64V70.8Z"/><path d="M1043.9,781.93a35.58,35.58,0,0,1-25.19-10.43L812.39,565.18a35.61,35.61,0,0,1,0-50.35L834,493.23h0L1018.71,308.5a35.61,35.61,0,0,1,60.79,25.18V746.32a35.6,35.6,0,0,1-35.6,35.61ZM887.93,540l120.35,120.36V419.64Z"/></svg>